<svg width="304" height="146" viewBox="0 0 304 146" fill="none" xmlns="http://www.w3.org/2000/svg">
<path d="M78 75V20.04H90.72L110.72 45.56C111.093 45.9867 111.573 46.6 112.16 47.4C112.8 48.2 113.413 49.0267 114 49.88C114.587 50.68 115.013 51.32 115.28 51.8L115.68 51.72C115.68 50.5467 115.68 49.4267 115.68 48.36C115.68 47.24 115.68 46.3067 115.68 45.56V20.04H128.96V75H116.32L95.12 48.12C94.4267 47.2667 93.76 46.3867 93.12 45.48C92.5333 44.5733 92.0533 43.8267 91.68 43.24L91.28 43.32C91.28 44.1733 91.28 45.0533 91.28 45.96C91.28 46.8133 91.28 47.5333 91.28 48.12V75H78Z" fill="#0A0A0A"/>
<path d="M153.929 75.96C149.395 75.96 145.875 74.7067 143.369 72.2C140.915 69.6933 139.689 65.8533 139.689 60.68V32.84H152.809V58.84C152.809 59.96 152.942 60.9467 153.209 61.8C153.529 62.6533 153.955 63.3733 154.489 63.96C155.022 64.5467 155.689 64.9733 156.489 65.24C157.342 65.5067 158.249 65.64 159.209 65.64C160.755 65.64 162.115 65.2933 163.289 64.6C164.462 63.8533 165.395 62.8667 166.089 61.64C166.782 60.36 167.129 58.9733 167.129 57.48V32.84H180.249V75H169.449L168.649 69H168.089C167.129 70.3867 165.902 71.6133 164.409 72.68C162.969 73.7467 161.342 74.5467 159.529 75.08C157.769 75.6667 155.902 75.96 153.929 75.96ZM205.041 75.96C202.321 75.96 200.001 75.56 198.081 74.76C196.215 73.9067 194.801 72.6533 193.841 71C192.935 69.3467 192.481 67.3467 192.481 65V42.36H186.961V32.84H192.881L195.601 20.52H205.521V32.84H213.761V42.36H205.521V61.8C205.521 63.2933 205.815 64.44 206.401 65.24C206.988 66.04 208.055 66.44 209.601 66.44H213.761V74.6C213.068 74.8133 212.188 75.0267 211.121 75.24C210.108 75.5067 209.068 75.6933 208.001 75.8C206.935 75.9067 205.948 75.96 205.041 75.96ZM221.023 75V32.84H231.823L232.783 39.32H233.343C233.983 37.88 234.756 36.6 235.663 35.48C236.623 34.3067 237.769 33.4 239.103 32.76C240.489 32.12 242.009 31.8 243.663 31.8C244.623 31.8 245.503 31.9067 246.303 32.12C247.103 32.28 247.689 32.4667 248.063 32.68V44.12H243.903C242.249 44.12 240.783 44.36 239.503 44.84C238.276 45.2667 237.263 45.96 236.463 46.92C235.663 47.8267 235.076 48.9467 234.703 50.28C234.329 51.6133 234.143 53.16 234.143 54.92V75H221.023ZM253.601 27.16V17.08H266.721V27.16H253.601ZM253.601 75V32.84H266.721V75H253.601Z" fill="black"/>
<path d="M72.328 112L82.906 83.833H91.721L102.299 112H94.468L92.787 107.121H81.553L79.872 112H72.328ZM83.316 101.627H90.983L88.974 95.682C88.8647 95.3813 88.728 95.0123 88.564 94.575C88.4273 94.1103 88.277 93.632 88.113 93.14C87.9763 92.6207 87.8397 92.1013 87.703 91.582C87.5663 91.0627 87.4297 90.6117 87.293 90.229H87.006C86.8967 90.7483 86.7327 91.336 86.514 91.992C86.3227 92.648 86.1177 93.304 85.899 93.96C85.7077 94.616 85.53 95.19 85.366 95.682L83.316 101.627ZM114.398 112.492C112.977 112.492 111.637 112.342 110.38 112.041C109.15 111.74 108.057 111.303 107.1 110.729C106.171 110.155 105.433 109.444 104.886 108.597C104.367 107.75 104.107 106.766 104.107 105.645C104.107 105.536 104.107 105.44 104.107 105.358C104.107 105.249 104.121 105.153 104.148 105.071H110.503C110.503 105.126 110.503 105.194 110.503 105.276C110.503 105.331 110.503 105.385 110.503 105.44C110.53 106.041 110.722 106.547 111.077 106.957C111.46 107.34 111.952 107.627 112.553 107.818C113.154 107.982 113.81 108.064 114.521 108.064C115.04 108.064 115.587 108.009 116.161 107.9C116.762 107.791 117.268 107.599 117.678 107.326C118.088 107.053 118.293 106.656 118.293 106.137C118.293 105.563 118.033 105.126 117.514 104.825C117.022 104.524 116.352 104.278 115.505 104.087C114.685 103.868 113.797 103.663 112.84 103.472C111.883 103.253 110.913 103.007 109.929 102.734C108.972 102.461 108.084 102.092 107.264 101.627C106.471 101.135 105.829 100.506 105.337 99.741C104.845 98.9757 104.599 98.0053 104.599 96.83C104.599 95.5727 104.859 94.5067 105.378 93.632C105.925 92.73 106.663 92.0057 107.592 91.459C108.521 90.9123 109.587 90.516 110.79 90.27C112.02 90.024 113.318 89.901 114.685 89.901C115.942 89.901 117.131 90.024 118.252 90.27C119.4 90.516 120.425 90.8987 121.327 91.418C122.256 91.91 122.981 92.5523 123.5 93.345C124.019 94.1103 124.279 95.0123 124.279 96.051C124.279 96.1877 124.265 96.338 124.238 96.502C124.238 96.6387 124.238 96.7343 124.238 96.789H117.924V96.461C117.924 95.9963 117.774 95.6137 117.473 95.313C117.172 95.0123 116.762 94.78 116.243 94.616C115.724 94.4247 115.15 94.329 114.521 94.329C114.111 94.329 113.701 94.37 113.291 94.452C112.908 94.5067 112.553 94.6023 112.225 94.739C111.897 94.8483 111.624 95.0123 111.405 95.231C111.214 95.4497 111.118 95.723 111.118 96.051C111.118 96.461 111.296 96.8027 111.651 97.076C112.006 97.322 112.485 97.527 113.086 97.691C113.715 97.855 114.398 98.0327 115.136 98.224C116.147 98.4427 117.213 98.675 118.334 98.921C119.455 99.1397 120.507 99.4677 121.491 99.905C122.502 100.315 123.309 100.944 123.91 101.791C124.539 102.611 124.853 103.745 124.853 105.194C124.853 106.561 124.58 107.722 124.033 108.679C123.486 109.608 122.735 110.36 121.778 110.934C120.821 111.481 119.714 111.877 118.457 112.123C117.2 112.369 115.847 112.492 114.398 112.492ZM138.141 112.492C136.72 112.492 135.38 112.342 134.123 112.041C132.893 111.74 131.8 111.303 130.843 110.729C129.914 110.155 129.176 109.444 128.629 108.597C128.11 107.75 127.85 106.766 127.85 105.645C127.85 105.536 127.85 105.44 127.85 105.358C127.85 105.249 127.864 105.153 127.891 105.071H134.246C134.246 105.126 134.246 105.194 134.246 105.276C134.246 105.331 134.246 105.385 134.246 105.44C134.273 106.041 134.465 106.547 134.82 106.957C135.203 107.34 135.695 107.627 136.296 107.818C136.897 107.982 137.553 108.064 138.264 108.064C138.783 108.064 139.33 108.009 139.904 107.9C140.505 107.791 141.011 107.599 141.421 107.326C141.831 107.053 142.036 106.656 142.036 106.137C142.036 105.563 141.776 105.126 141.257 104.825C140.765 104.524 140.095 104.278 139.248 104.087C138.428 103.868 137.54 103.663 136.583 103.472C135.626 103.253 134.656 103.007 133.672 102.734C132.715 102.461 131.827 102.092 131.007 101.627C130.214 101.135 129.572 100.506 129.08 99.741C128.588 98.9757 128.342 98.0053 128.342 96.83C128.342 95.5727 128.602 94.5067 129.121 93.632C129.668 92.73 130.406 92.0057 131.335 91.459C132.264 90.9123 133.33 90.516 134.533 90.27C135.763 90.024 137.061 89.901 138.428 89.901C139.685 89.901 140.874 90.024 141.995 90.27C143.143 90.516 144.168 90.8987 145.07 91.418C145.999 91.91 146.724 92.5523 147.243 93.345C147.762 94.1103 148.022 95.0123 148.022 96.051C148.022 96.1877 148.008 96.338 147.981 96.502C147.981 96.6387 147.981 96.7343 147.981 96.789H141.667V96.461C141.667 95.9963 141.517 95.6137 141.216 95.313C140.915 95.0123 140.505 94.78 139.986 94.616C139.467 94.4247 138.893 94.329 138.264 94.329C137.854 94.329 137.444 94.37 137.034 94.452C136.651 94.5067 136.296 94.6023 135.968 94.739C135.64 94.8483 135.367 95.0123 135.148 95.231C134.957 95.4497 134.861 95.723 134.861 96.051C134.861 96.461 135.039 96.8027 135.394 97.076C135.749 97.322 136.228 97.527 136.829 97.691C137.458 97.855 138.141 98.0327 138.879 98.224C139.89 98.4427 140.956 98.675 142.077 98.921C143.198 99.1397 144.25 99.4677 145.234 99.905C146.245 100.315 147.052 100.944 147.653 101.791C148.282 102.611 148.596 103.745 148.596 105.194C148.596 106.561 148.323 107.722 147.776 108.679C147.229 109.608 146.478 110.36 145.521 110.934C144.564 111.481 143.457 111.877 142.2 112.123C140.943 112.369 139.59 112.492 138.141 112.492ZM152.618 87.482V82.316H159.342V87.482H152.618ZM152.618 112V90.393H159.342V112H152.618ZM173.696 112.492C172.274 112.492 170.935 112.342 169.678 112.041C168.448 111.74 167.354 111.303 166.398 110.729C165.468 110.155 164.73 109.444 164.184 108.597C163.664 107.75 163.405 106.766 163.405 105.645C163.405 105.536 163.405 105.44 163.405 105.358C163.405 105.249 163.418 105.153 163.446 105.071H169.801C169.801 105.126 169.801 105.194 169.801 105.276C169.801 105.331 169.801 105.385 169.801 105.44C169.828 106.041 170.019 106.547 170.375 106.957C170.757 107.34 171.249 107.627 171.851 107.818C172.452 107.982 173.108 108.064 173.819 108.064C174.338 108.064 174.885 108.009 175.459 107.9C176.06 107.791 176.566 107.599 176.976 107.326C177.386 107.053 177.591 106.656 177.591 106.137C177.591 105.563 177.331 105.126 176.812 104.825C176.32 104.524 175.65 104.278 174.803 104.087C173.983 103.868 173.094 103.663 172.138 103.472C171.181 103.253 170.211 103.007 169.227 102.734C168.27 102.461 167.382 102.092 166.562 101.627C165.769 101.135 165.127 100.506 164.635 99.741C164.143 98.9757 163.897 98.0053 163.897 96.83C163.897 95.5727 164.156 94.5067 164.676 93.632C165.222 92.73 165.96 92.0057 166.89 91.459C167.819 90.9123 168.885 90.516 170.088 90.27C171.318 90.024 172.616 89.901 173.983 89.901C175.24 89.901 176.429 90.024 177.55 90.27C178.698 90.516 179.723 90.8987 180.625 91.418C181.554 91.91 182.278 92.5523 182.798 93.345C183.317 94.1103 183.577 95.0123 183.577 96.051C183.577 96.1877 183.563 96.338 183.536 96.502C183.536 96.6387 183.536 96.7343 183.536 96.789H177.222V96.461C177.222 95.9963 177.071 95.6137 176.771 95.313C176.47 95.0123 176.06 94.78 175.541 94.616C175.021 94.4247 174.447 94.329 173.819 94.329C173.409 94.329 172.999 94.37 172.589 94.452C172.206 94.5067 171.851 94.6023 171.523 94.739C171.195 94.8483 170.921 95.0123 170.703 95.231C170.511 95.4497 170.416 95.723 170.416 96.051C170.416 96.461 170.593 96.8027 170.949 97.076C171.304 97.322 171.782 97.527 172.384 97.691C173.012 97.855 173.696 98.0327 174.434 98.224C175.445 98.4427 176.511 98.675 177.632 98.921C178.752 99.1397 179.805 99.4677 180.789 99.905C181.8 100.315 182.606 100.944 183.208 101.791C183.836 102.611 184.151 103.745 184.151 105.194C184.151 106.561 183.877 107.722 183.331 108.679C182.784 109.608 182.032 110.36 181.076 110.934C180.119 111.481 179.012 111.877 177.755 112.123C176.497 112.369 175.144 112.492 173.696 112.492ZM195.758 112.492C194.364 112.492 193.175 112.287 192.191 111.877C191.234 111.44 190.51 110.797 190.018 109.95C189.553 109.103 189.321 108.078 189.321 106.875V95.272H186.492V90.393H189.526L190.92 84.079H196.004V90.393H200.227V95.272H196.004V105.235C196.004 106 196.154 106.588 196.455 106.998C196.756 107.408 197.302 107.613 198.095 107.613H200.227V111.795C199.872 111.904 199.421 112.014 198.874 112.123C198.355 112.26 197.822 112.355 197.275 112.41C196.728 112.465 196.223 112.492 195.758 112.492ZM209.975 112.492C209.073 112.492 208.185 112.396 207.31 112.205C206.463 112.041 205.684 111.74 204.973 111.303C204.29 110.838 203.743 110.21 203.333 109.417C202.923 108.624 202.718 107.627 202.718 106.424C202.718 104.866 203.046 103.595 203.702 102.611C204.358 101.627 205.301 100.862 206.531 100.315C207.789 99.741 209.292 99.3447 211.041 99.126C212.818 98.9073 214.8 98.798 216.986 98.798V97.445C216.986 96.8163 216.863 96.297 216.617 95.887C216.371 95.4497 216.002 95.1217 215.51 94.903C215.046 94.657 214.417 94.534 213.624 94.534C212.914 94.534 212.285 94.616 211.738 94.78C211.219 94.944 210.823 95.19 210.549 95.518C210.276 95.8187 210.139 96.1877 210.139 96.625V96.994H203.579C203.552 96.8573 203.538 96.748 203.538 96.666C203.538 96.5567 203.538 96.42 203.538 96.256C203.538 94.9713 203.935 93.8507 204.727 92.894C205.547 91.9373 206.709 91.1993 208.212 90.68C209.716 90.1607 211.533 89.901 213.665 89.901C215.661 89.901 217.396 90.147 218.872 90.639C220.376 91.131 221.551 91.8827 222.398 92.894C223.273 93.9053 223.71 95.231 223.71 96.871V106.096C223.71 106.561 223.833 106.93 224.079 107.203C224.353 107.476 224.681 107.613 225.063 107.613H226.457V111.754C226.157 111.891 225.678 112.041 225.022 112.205C224.394 112.396 223.628 112.492 222.726 112.492C221.797 112.492 220.977 112.369 220.266 112.123C219.583 111.904 219.009 111.59 218.544 111.18C218.107 110.743 217.806 110.237 217.642 109.663H217.355C216.836 110.21 216.221 110.702 215.51 111.139C214.827 111.576 214.021 111.904 213.091 112.123C212.189 112.369 211.151 112.492 209.975 112.492ZM212.476 107.859C213.132 107.859 213.734 107.763 214.28 107.572C214.827 107.381 215.292 107.121 215.674 106.793C216.084 106.438 216.399 106.014 216.617 105.522C216.863 105.03 216.986 104.497 216.986 103.923V102.488C215.428 102.488 214.089 102.597 212.968 102.816C211.848 103.035 210.987 103.376 210.385 103.841C209.784 104.306 209.483 104.893 209.483 105.604C209.483 106.123 209.606 106.561 209.852 106.916C210.126 107.244 210.481 107.49 210.918 107.654C211.356 107.791 211.875 107.859 212.476 107.859ZM229.213 112V90.393H234.748L235.24 93.468H235.527C236.074 92.73 236.702 92.0877 237.413 91.541C238.124 90.9943 238.93 90.5843 239.832 90.311C240.734 90.0377 241.691 89.901 242.702 89.901C244.26 89.901 245.572 90.188 246.638 90.762C247.731 91.336 248.565 92.197 249.139 93.345C249.713 94.493 250 95.9553 250 97.732V112H243.276V98.675C243.276 98.0737 243.194 97.568 243.03 97.158C242.893 96.7207 242.688 96.3517 242.415 96.051C242.142 95.7503 241.8 95.5317 241.39 95.395C240.98 95.2583 240.515 95.19 239.996 95.19C239.203 95.19 238.506 95.3813 237.905 95.764C237.304 96.1193 236.825 96.6113 236.47 97.24C236.115 97.8413 235.937 98.552 235.937 99.372V112H229.213ZM262.583 112.492C261.189 112.492 260 112.287 259.016 111.877C258.059 111.44 257.335 110.797 256.843 109.95C256.378 109.103 256.146 108.078 256.146 106.875V95.272H253.317V90.393H256.351L257.745 84.079H262.829V90.393H267.052V95.272H262.829V105.235C262.829 106 262.979 106.588 263.28 106.998C263.581 107.408 264.127 107.613 264.92 107.613H267.052V111.795C266.697 111.904 266.246 112.014 265.699 112.123C265.18 112.26 264.647 112.355 264.1 112.41C263.553 112.465 263.048 112.492 262.583 112.492Z" fill="#39A22C"/>
<rect y="21.3256" width="7.43275" height="57.6744" rx="3.71637" fill="#39A22C"/>
<rect x="29.731" y="21.3256" width="7.43275" height="57.6744" rx="3.71637" fill="#39A22C"/>
<rect x="59.4619" y="21.3256" width="7.43275" height="57.6744" rx="3.71637" fill="#39A22C"/>
<rect x="14.8656" y="17" width="7.43275" height="57.6744" rx="3.71637" fill="black"/>
<rect x="44.5964" y="17" width="7.43275" height="57.6744" rx="3.71637" fill="black"/>
</svg>
