<svg width="365" height="81" viewBox="0 0 365 81" fill="none" xmlns="http://www.w3.org/2000/svg">
<path d="M48.075 54V25.833H54.594L64.844 38.912C65.0353 39.1307 65.2813 39.445 65.582 39.855C65.91 40.265 66.2243 40.6887 66.525 41.126C66.8257 41.536 67.0443 41.864 67.181 42.11L67.386 42.069C67.386 41.4677 67.386 40.8937 67.386 40.347C67.386 39.773 67.386 39.2947 67.386 38.912V25.833H74.192V54H67.714L56.849 40.224C56.4937 39.7867 56.152 39.3357 55.824 38.871C55.5233 38.4063 55.2773 38.0237 55.086 37.723L54.881 37.764C54.881 38.2013 54.881 38.6523 54.881 39.117C54.881 39.5543 54.881 39.9233 54.881 40.224V54H48.075ZM86.9885 54.492C84.6652 54.492 82.8612 53.8497 81.5765 52.565C80.3192 51.2803 79.6905 49.3123 79.6905 46.661V32.393H86.4145V45.718C86.4145 46.292 86.4828 46.7977 86.6195 47.235C86.7835 47.6723 87.0022 48.0413 87.2755 48.342C87.5488 48.6427 87.8905 48.8613 88.3005 48.998C88.7378 49.1347 89.2025 49.203 89.6945 49.203C90.4872 49.203 91.1842 49.0253 91.7855 48.67C92.3868 48.2873 92.8652 47.7817 93.2205 47.153C93.5758 46.497 93.7535 45.7863 93.7535 45.021V32.393H100.477V54H94.9425L94.5325 50.925H94.2455C93.7535 51.6357 93.1248 52.2643 92.3595 52.811C91.6215 53.3577 90.7878 53.7677 89.8585 54.041C88.9565 54.3417 87.9998 54.492 86.9885 54.492ZM113.184 54.492C111.79 54.492 110.601 54.287 109.617 53.877C108.66 53.4397 107.936 52.7973 107.444 51.95C106.979 51.1027 106.747 50.0777 106.747 48.875V37.272H103.918V32.393H106.952L108.346 26.079H113.43V32.393H117.653V37.272H113.43V47.235C113.43 48.0003 113.58 48.588 113.881 48.998C114.181 49.408 114.728 49.613 115.521 49.613H117.653V53.795C117.297 53.9043 116.846 54.0137 116.3 54.123C115.78 54.2597 115.247 54.3553 114.701 54.41C114.154 54.4647 113.648 54.492 113.184 54.492ZM121.374 54V32.393H126.909L127.401 35.714H127.688C128.016 34.976 128.412 34.32 128.877 33.746C129.369 33.1447 129.957 32.68 130.64 32.352C131.351 32.024 132.13 31.86 132.977 31.86C133.469 31.86 133.92 31.9147 134.33 32.024C134.74 32.106 135.041 32.2017 135.232 32.311V38.174H133.1C132.253 38.174 131.501 38.297 130.845 38.543C130.216 38.7617 129.697 39.117 129.287 39.609C128.877 40.0737 128.576 40.6477 128.385 41.331C128.194 42.0143 128.098 42.807 128.098 43.709V54H121.374ZM138.07 29.482V24.316H144.794V29.482H138.07ZM138.07 54V32.393H144.794V54H138.07Z" fill="black"/>
<path d="M147.668 54L158.246 25.833H167.061L177.639 54H169.808L168.127 49.121H156.893L155.212 54H147.668ZM158.656 43.627H166.323L164.314 37.682C164.205 37.3813 164.068 37.0123 163.904 36.575C163.767 36.1103 163.617 35.632 163.453 35.14C163.316 34.6207 163.18 34.1013 163.043 33.582C162.906 33.0627 162.77 32.6117 162.633 32.229H162.346C162.237 32.7483 162.073 33.336 161.854 33.992C161.663 34.648 161.458 35.304 161.239 35.96C161.048 36.616 160.87 37.19 160.706 37.682L158.656 43.627ZM189.738 54.492C188.316 54.492 186.977 54.3417 185.72 54.041C184.49 53.7403 183.396 53.303 182.44 52.729C181.51 52.155 180.772 51.4443 180.226 50.597C179.706 49.7497 179.447 48.7657 179.447 47.645C179.447 47.5357 179.447 47.44 179.447 47.358C179.447 47.2487 179.46 47.153 179.488 47.071H185.843C185.843 47.1257 185.843 47.194 185.843 47.276C185.843 47.3307 185.843 47.3853 185.843 47.44C185.87 48.0413 186.061 48.547 186.417 48.957C186.799 49.3397 187.291 49.6267 187.893 49.818C188.494 49.982 189.15 50.064 189.861 50.064C190.38 50.064 190.927 50.0093 191.501 49.9C192.102 49.7907 192.608 49.5993 193.018 49.326C193.428 49.0527 193.633 48.6563 193.633 48.137C193.633 47.563 193.373 47.1257 192.854 46.825C192.362 46.5243 191.692 46.2783 190.845 46.087C190.025 45.8683 189.136 45.6633 188.18 45.472C187.223 45.2533 186.253 45.0073 185.269 44.734C184.312 44.4607 183.424 44.0917 182.604 43.627C181.811 43.135 181.169 42.5063 180.677 41.741C180.185 40.9757 179.939 40.0053 179.939 38.83C179.939 37.5727 180.198 36.5067 180.718 35.632C181.264 34.73 182.002 34.0057 182.932 33.459C183.861 32.9123 184.927 32.516 186.13 32.27C187.36 32.024 188.658 31.901 190.025 31.901C191.282 31.901 192.471 32.024 193.592 32.27C194.74 32.516 195.765 32.8987 196.667 33.418C197.596 33.91 198.32 34.5523 198.84 35.345C199.359 36.1103 199.619 37.0123 199.619 38.051C199.619 38.1877 199.605 38.338 199.578 38.502C199.578 38.6387 199.578 38.7343 199.578 38.789H193.264V38.461C193.264 37.9963 193.113 37.6137 192.813 37.313C192.512 37.0123 192.102 36.78 191.583 36.616C191.063 36.4247 190.489 36.329 189.861 36.329C189.451 36.329 189.041 36.37 188.631 36.452C188.248 36.5067 187.893 36.6023 187.565 36.739C187.237 36.8483 186.963 37.0123 186.745 37.231C186.553 37.4497 186.458 37.723 186.458 38.051C186.458 38.461 186.635 38.8027 186.991 39.076C187.346 39.322 187.824 39.527 188.426 39.691C189.054 39.855 189.738 40.0327 190.476 40.224C191.487 40.4427 192.553 40.675 193.674 40.921C194.794 41.1397 195.847 41.4677 196.831 41.905C197.842 42.315 198.648 42.9437 199.25 43.791C199.878 44.611 200.193 45.7453 200.193 47.194C200.193 48.5607 199.919 49.7223 199.373 50.679C198.826 51.6083 198.074 52.36 197.118 52.934C196.161 53.4807 195.054 53.877 193.797 54.123C192.539 54.369 191.186 54.492 189.738 54.492ZM213.481 54.492C212.06 54.492 210.72 54.3417 209.463 54.041C208.233 53.7403 207.14 53.303 206.183 52.729C205.254 52.155 204.516 51.4443 203.969 50.597C203.45 49.7497 203.19 48.7657 203.19 47.645C203.19 47.5357 203.19 47.44 203.19 47.358C203.19 47.2487 203.204 47.153 203.231 47.071H209.586C209.586 47.1257 209.586 47.194 209.586 47.276C209.586 47.3307 209.586 47.3853 209.586 47.44C209.613 48.0413 209.805 48.547 210.16 48.957C210.543 49.3397 211.035 49.6267 211.636 49.818C212.237 49.982 212.893 50.064 213.604 50.064C214.123 50.064 214.67 50.0093 215.244 49.9C215.845 49.7907 216.351 49.5993 216.761 49.326C217.171 49.0527 217.376 48.6563 217.376 48.137C217.376 47.563 217.116 47.1257 216.597 46.825C216.105 46.5243 215.435 46.2783 214.588 46.087C213.768 45.8683 212.88 45.6633 211.923 45.472C210.966 45.2533 209.996 45.0073 209.012 44.734C208.055 44.4607 207.167 44.0917 206.347 43.627C205.554 43.135 204.912 42.5063 204.42 41.741C203.928 40.9757 203.682 40.0053 203.682 38.83C203.682 37.5727 203.942 36.5067 204.461 35.632C205.008 34.73 205.746 34.0057 206.675 33.459C207.604 32.9123 208.67 32.516 209.873 32.27C211.103 32.024 212.401 31.901 213.768 31.901C215.025 31.901 216.214 32.024 217.335 32.27C218.483 32.516 219.508 32.8987 220.41 33.418C221.339 33.91 222.064 34.5523 222.583 35.345C223.102 36.1103 223.362 37.0123 223.362 38.051C223.362 38.1877 223.348 38.338 223.321 38.502C223.321 38.6387 223.321 38.7343 223.321 38.789H217.007V38.461C217.007 37.9963 216.857 37.6137 216.556 37.313C216.255 37.0123 215.845 36.78 215.326 36.616C214.807 36.4247 214.233 36.329 213.604 36.329C213.194 36.329 212.784 36.37 212.374 36.452C211.991 36.5067 211.636 36.6023 211.308 36.739C210.98 36.8483 210.707 37.0123 210.488 37.231C210.297 37.4497 210.201 37.723 210.201 38.051C210.201 38.461 210.379 38.8027 210.734 39.076C211.089 39.322 211.568 39.527 212.169 39.691C212.798 39.855 213.481 40.0327 214.219 40.224C215.23 40.4427 216.296 40.675 217.417 40.921C218.538 41.1397 219.59 41.4677 220.574 41.905C221.585 42.315 222.392 42.9437 222.993 43.791C223.622 44.611 223.936 45.7453 223.936 47.194C223.936 48.5607 223.663 49.7223 223.116 50.679C222.569 51.6083 221.818 52.36 220.861 52.934C219.904 53.4807 218.797 53.877 217.54 54.123C216.283 54.369 214.93 54.492 213.481 54.492ZM227.958 29.482V24.316H234.682V29.482H227.958ZM227.958 54V32.393H234.682V54H227.958ZM249.036 54.492C247.614 54.492 246.275 54.3417 245.018 54.041C243.788 53.7403 242.694 53.303 241.738 52.729C240.808 52.155 240.07 51.4443 239.524 50.597C239.004 49.7497 238.745 48.7657 238.745 47.645C238.745 47.5357 238.745 47.44 238.745 47.358C238.745 47.2487 238.758 47.153 238.786 47.071H245.141C245.141 47.1257 245.141 47.194 245.141 47.276C245.141 47.3307 245.141 47.3853 245.141 47.44C245.168 48.0413 245.359 48.547 245.715 48.957C246.097 49.3397 246.589 49.6267 247.191 49.818C247.792 49.982 248.448 50.064 249.159 50.064C249.678 50.064 250.225 50.0093 250.799 49.9C251.4 49.7907 251.906 49.5993 252.316 49.326C252.726 49.0527 252.931 48.6563 252.931 48.137C252.931 47.563 252.671 47.1257 252.152 46.825C251.66 46.5243 250.99 46.2783 250.143 46.087C249.323 45.8683 248.434 45.6633 247.478 45.472C246.521 45.2533 245.551 45.0073 244.567 44.734C243.61 44.4607 242.722 44.0917 241.902 43.627C241.109 43.135 240.467 42.5063 239.975 41.741C239.483 40.9757 239.237 40.0053 239.237 38.83C239.237 37.5727 239.496 36.5067 240.016 35.632C240.562 34.73 241.3 34.0057 242.23 33.459C243.159 32.9123 244.225 32.516 245.428 32.27C246.658 32.024 247.956 31.901 249.323 31.901C250.58 31.901 251.769 32.024 252.89 32.27C254.038 32.516 255.063 32.8987 255.965 33.418C256.894 33.91 257.618 34.5523 258.138 35.345C258.657 36.1103 258.917 37.0123 258.917 38.051C258.917 38.1877 258.903 38.338 258.876 38.502C258.876 38.6387 258.876 38.7343 258.876 38.789H252.562V38.461C252.562 37.9963 252.411 37.6137 252.111 37.313C251.81 37.0123 251.4 36.78 250.881 36.616C250.361 36.4247 249.787 36.329 249.159 36.329C248.749 36.329 248.339 36.37 247.929 36.452C247.546 36.5067 247.191 36.6023 246.863 36.739C246.535 36.8483 246.261 37.0123 246.043 37.231C245.851 37.4497 245.756 37.723 245.756 38.051C245.756 38.461 245.933 38.8027 246.289 39.076C246.644 39.322 247.122 39.527 247.724 39.691C248.352 39.855 249.036 40.0327 249.774 40.224C250.785 40.4427 251.851 40.675 252.972 40.921C254.092 41.1397 255.145 41.4677 256.129 41.905C257.14 42.315 257.946 42.9437 258.548 43.791C259.176 44.611 259.491 45.7453 259.491 47.194C259.491 48.5607 259.217 49.7223 258.671 50.679C258.124 51.6083 257.372 52.36 256.416 52.934C255.459 53.4807 254.352 53.877 253.095 54.123C251.837 54.369 250.484 54.492 249.036 54.492ZM271.098 54.492C269.704 54.492 268.515 54.287 267.531 53.877C266.574 53.4397 265.85 52.7973 265.358 51.95C264.893 51.1027 264.661 50.0777 264.661 48.875V37.272H261.832V32.393H264.866L266.26 26.079H271.344V32.393H275.567V37.272H271.344V47.235C271.344 48.0003 271.494 48.588 271.795 48.998C272.095 49.408 272.642 49.613 273.435 49.613H275.567V53.795C275.211 53.9043 274.76 54.0137 274.214 54.123C273.694 54.2597 273.161 54.3553 272.615 54.41C272.068 54.4647 271.562 54.492 271.098 54.492ZM285.315 54.492C284.413 54.492 283.525 54.3963 282.65 54.205C281.803 54.041 281.024 53.7403 280.313 53.303C279.63 52.8383 279.083 52.2097 278.673 51.417C278.263 50.6243 278.058 49.6267 278.058 48.424C278.058 46.866 278.386 45.595 279.042 44.611C279.698 43.627 280.641 42.8617 281.871 42.315C283.128 41.741 284.632 41.3447 286.381 41.126C288.158 40.9073 290.139 40.798 292.326 40.798V39.445C292.326 38.8163 292.203 38.297 291.957 37.887C291.711 37.4497 291.342 37.1217 290.85 36.903C290.385 36.657 289.757 36.534 288.964 36.534C288.253 36.534 287.625 36.616 287.078 36.78C286.559 36.944 286.162 37.19 285.889 37.518C285.616 37.8187 285.479 38.1877 285.479 38.625V38.994H278.919C278.892 38.8573 278.878 38.748 278.878 38.666C278.878 38.5567 278.878 38.42 278.878 38.256C278.878 36.9713 279.274 35.8507 280.067 34.894C280.887 33.9373 282.049 33.1993 283.552 32.68C285.055 32.1607 286.873 31.901 289.005 31.901C291 31.901 292.736 32.147 294.212 32.639C295.715 33.131 296.891 33.8827 297.738 34.894C298.613 35.9053 299.05 37.231 299.05 38.871V48.096C299.05 48.5607 299.173 48.9297 299.419 49.203C299.692 49.4763 300.02 49.613 300.403 49.613H301.797V53.754C301.496 53.8907 301.018 54.041 300.362 54.205C299.733 54.3963 298.968 54.492 298.066 54.492C297.137 54.492 296.317 54.369 295.606 54.123C294.923 53.9043 294.349 53.59 293.884 53.18C293.447 52.7427 293.146 52.237 292.982 51.663H292.695C292.176 52.2097 291.561 52.7017 290.85 53.139C290.167 53.5763 289.36 53.9043 288.431 54.123C287.529 54.369 286.49 54.492 285.315 54.492ZM287.816 49.859C288.472 49.859 289.073 49.7633 289.62 49.572C290.167 49.3807 290.631 49.121 291.014 48.793C291.424 48.4377 291.738 48.014 291.957 47.522C292.203 47.03 292.326 46.497 292.326 45.923V44.488C290.768 44.488 289.429 44.5973 288.308 44.816C287.187 45.0347 286.326 45.3763 285.725 45.841C285.124 46.3057 284.823 46.8933 284.823 47.604C284.823 48.1233 284.946 48.5607 285.192 48.916C285.465 49.244 285.821 49.49 286.258 49.654C286.695 49.7907 287.215 49.859 287.816 49.859ZM304.553 54V32.393H310.088L310.58 35.468H310.867C311.413 34.73 312.042 34.0877 312.753 33.541C313.463 32.9943 314.27 32.5843 315.172 32.311C316.074 32.0377 317.03 31.901 318.042 31.901C319.6 31.901 320.912 32.188 321.978 32.762C323.071 33.336 323.905 34.197 324.479 35.345C325.053 36.493 325.34 37.9553 325.34 39.732V54H318.616V40.675C318.616 40.0737 318.534 39.568 318.37 39.158C318.233 38.7207 318.028 38.3517 317.755 38.051C317.481 37.7503 317.14 37.5317 316.73 37.395C316.32 37.2583 315.855 37.19 315.336 37.19C314.543 37.19 313.846 37.3813 313.245 37.764C312.643 38.1193 312.165 38.6113 311.81 39.24C311.454 39.8413 311.277 40.552 311.277 41.372V54H304.553ZM337.923 54.492C336.529 54.492 335.34 54.287 334.356 53.877C333.399 53.4397 332.675 52.7973 332.183 51.95C331.718 51.1027 331.486 50.0777 331.486 48.875V37.272H328.657V32.393H331.691L333.085 26.079H338.169V32.393H342.392V37.272H338.169V47.235C338.169 48.0003 338.319 48.588 338.62 48.998C338.921 49.408 339.467 49.613 340.26 49.613H342.392V53.795C342.037 53.9043 341.586 54.0137 341.039 54.123C340.52 54.2597 339.987 54.3553 339.44 54.41C338.893 54.4647 338.388 54.492 337.923 54.492Z" fill="#39A22C"/>
<rect y="24.5864" width="4.44444" height="34.4867" rx="2.22222" fill="#39A22C"/>
<rect x="17.7777" y="24.5864" width="4.44444" height="34.4867" rx="2.22222" fill="#39A22C"/>
<rect x="35.5555" y="24.5864" width="4.44444" height="34.4867" rx="2.22222" fill="#39A22C"/>
<rect x="8.88892" y="22" width="4.44444" height="34.4867" rx="2.22222" fill="black"/>
<rect x="26.6666" y="22" width="4.44444" height="34.4867" rx="2.22222" fill="black"/>
</svg>
